# Alias OBJ Model File
# Exported from SketchUp, (c) 2000-2012 Trimble Navigation Limited
# File units = inches

mtllib Tunnel.mtl

g Mesh1 Component_2_1 Model

usemtl _6
v -47.6856 -5.68434e-14 -533.987
vt -0.585784 6
vn 0 0 1
v -33.7188 -33.7188 -533.987
vt -1.41421 6
v 1.27898e-13 -5.68434e-14 -533.987
vt -1 5
f 1/1/1 2/2/1 3/3/1

vt -1.11022e-16 5
vn -4.76818e-15 4.76818e-15 1
vt 0.414216 6
v 1.27898e-13 -47.6856 -533.987
vt -0.414212 6
f 3/4/2 2/5/2 4/6/2

vt -2.22045e-16 5
vn 4.76818e-15 4.76818e-15 1
v 33.7188 -33.7188 -533.987
f 3/7/3 4/5/3 5/6/3

vt 4.50751e-14 6
vt 0.414215 7
v 47.6856 -5.68434e-14 -533.987
vt -0.414213 7
f 3/8/1 5/9/1 6/10/1

v 33.7188 33.7188 -533.987
vt 1.10023e-13 6
f 7/10/1 3/11/1 6/9/1

v 1.27898e-13 47.6856 -533.987
vt 1.11022e-16 6
f 8/10/2 3/12/2 7/9/2

vt -0.585785 7
v -33.7188 33.7188 -533.987
vt -1.41421 7
vt -1 6
f 8/13/3 9/14/3 3/15/3

f 9/13/1 1/14/1 3/15/1

g Mesh2 Component_3_1 Model

usemtl _7
v 2.41585e-13 5.68434e-14 530.56
vt -2 5
vn 4.76818e-15 -4.76818e-15 -1
v 2.41585e-13 -47.6856 530.56
vt -1.58579 6
v -33.7188 -33.7188 530.56
vt -2.41421 6
f 10/16/4 11/17/4 12/18/4

vn -4.76818e-15 -4.76818e-15 -1
v 33.7188 -33.7188 530.56
f 10/16/5 13/17/5 11/18/5

v 47.6856 5.68434e-14 530.56
vn 0 0 -1
f 14/17/6 13/18/6 10/16/6

v 33.7188 33.7188 530.56
vt -1.58579 7
vt -2.41421 7
vt -2 6
f 15/19/6 14/20/6 10/21/6

v 2.41585e-13 47.6856 530.56
vt -0.585786 7
f 16/22/4 15/14/4 10/15/4

v -33.7188 33.7188 530.56
f 16/14/5 10/15/5 17/22/5

v -47.6856 5.68434e-14 530.56
vt -0.585785 6
f 17/2/6 10/3/6 18/23/6

f 10/3/6 12/23/6 18/2/6

g Mesh3 Component_4_1 Model

usemtl _5
v 23.4919 -13.3125 -481.669
vt -0.100057 -1.66533e-16
v -23.4919 -19.4381 -481.669
vt -3 -0.378088
v 23.4919 -19.4381 -481.669
vt -0.100058 -0.378087
f 19/24/1 20/25/1 21/26/1

v -23.4919 -13.3125 -481.669
vt -3 -1.66533e-16
f 20/25/1 19/24/1 22/27/1

usemtl _4
vt 1.53947 53.0064
vn 0 1 -0
v -23.4919 -13.3125 -510.362
vt -5 57
vt -5 53.0064
f 19/28/7 23/29/7 22/30/7

v 23.4919 -13.3125 -510.362
vt 1.53947 57
f 23/29/7 19/28/7 24/31/7

usemtl _5
vt -0.100057 1.11022e-16
vn 1 0 -0
v 23.4919 -19.4381 -510.362
vt 1.67091 -0.378088
vt 1.67091 -6.0243e-07
f 19/32/8 25/33/8 24/34/8

f 25/33/8 19/32/8 21/26/8

usemtl _4
vt 1.98362 53.0064
vn -2.25521e-33 -1 1.50791e-16
vt -4.55585 57
vt -4.55585 53.0064
f 20/35/9 25/36/9 21/37/9

v -23.4919 -19.4381 -510.362
vt 1.98362 57
f 25/36/9 20/35/9 26/38/9

usemtl _5
vn -1 0 -0
vt -4.77097 6.02431e-07
vt -4.77097 -0.378087
f 20/25/10 23/39/10 26/40/10

vt -3 1.66533e-16
f 23/39/10 20/25/10 22/41/10

vt 4.57085 -1.5889e-06
vt 4.57085 -0.378089
f 23/42/6 25/33/6 26/43/6

f 25/33/6 23/42/6 24/34/6

g Mesh4 Component_1_1 Model

usemtl _1
v -133.937 -1.98952e-13 -474.424
vt -0.388706 -4.61129
vn 0.943872 -1.25281e-15 0.330311
v -94.7081 94.7081 470.998
vt -4.5 0.500002
vn 0.667418 -0.667418 -0.330311
v -133.937 5.68434e-13 470.998
vt -5 3.0157e-06
vn 0.943872 -1.7696e-15 -0.330311
f 27/44/11 28/45/12 29/46/13

v -94.7081 94.7081 -474.424
vt 0.111293 -4.11129
vn 0.667418 -0.667418 0.330311
f 28/45/12 27/44/11 30/47/14

v -98.6185 -2.27374e-13 -519.612
vt -0.10238 -4.76577
vn 0.551347 7.50933e-17 0.834276
vn 0.943872 -1.26847e-15 0.330311
f 31/48/15 30/47/14 27/44/16

v -69.7338 69.7338 -519.612
vt 0.26577 -4.39762
vn 0.389861 -0.389861 0.834276
f 30/47/14 31/48/15 32/49/17

vn 0.551347 6.7584e-17 0.834276
v -33.7188 33.7188 -533.987
vt 0.240816 -4.5628
vn 0.192066 -0.192066 0.962404
f 31/48/18 33/50/19 32/49/17

v -47.6856 -2.55795e-13 -533.987
vt 0.0628023 -4.74081
vn 0.271623 5.09735e-16 0.962404
f 33/50/19 31/48/18 34/51/20

vt -0.234228 -4.89761
vn 0.551347 6.38293e-17 0.834276
v -33.7188 -33.7188 -533.987
vt -0.437196 -5.24081
vn 0.192066 0.192066 0.962404
vt -0.259182 -5.0628
f 31/52/21 35/53/22 34/54/20

v -69.7338 -69.7338 -519.612
vt -0.602378 -5.26576
vn 0.389861 0.389861 0.834276
f 35/53/22 31/52/21 36/55/23

vn 0.943872 -1.23715e-15 0.330311
vn 0.551347 6.00747e-17 0.834276
f 27/44/24 36/55/23 31/52/25

v -94.7081 -94.7081 -474.424
vt -0.888704 -5.11129
vn 0.667418 0.667418 0.330311
f 36/55/23 27/44/24 37/56/26

v -94.7081 -94.7081 470.998
vt -5.5 -0.499995
vn 0.667418 0.667418 -0.330311
f 27/44/11 38/57/27 37/56/26

f 38/57/27 27/44/11 29/46/13

v -98.6185 -5.68434e-14 516.185
vt -5.28632 0.154481
vn 0.551347 -9.61195e-16 -0.834276
vn 0.943872 -1.75394e-15 -0.330311
f 39/58/28 38/57/27 29/46/29

v -69.7338 -69.7338 516.185
vt -5.65447 -0.213669
vn 0.389861 0.389861 -0.834276
f 38/57/27 39/58/28 40/59/30

vn 0.551347 -9.5744e-16 -0.834276
v -33.7188 -33.7188 530.56
vt -5.62952 -0.0484873
vn 0.192066 0.192066 -0.962404
f 39/58/31 41/60/32 40/59/30

v -47.6856 -5.68434e-14 530.56
vt -5.45151 0.129526
vn 0.271623 -4.60856e-16 -0.962404
f 41/60/32 39/58/31 42/61/33

v -69.7338 69.7338 516.185
vt -4.78632 0.654479
vn 0.389861 -0.389861 -0.834276
vt -5.12952 0.451511
vt -5.15447 0.286329
f 43/62/34 42/63/33 39/64/31

v -33.7188 33.7188 530.56
vt -4.95151 0.629525
vn 0.192066 -0.192066 -0.962404
f 42/63/33 43/62/34 44/65/35

vt -4.65448 0.786327
v 5.11591e-13 47.6856 530.56
vt -4.45151 1.12952
vn -2.02498e-16 -0.271623 -0.962404
vt -4.62952 0.95151
f 43/66/34 45/67/36 44/68/35

v 5.11591e-13 98.6185 516.185
vt -4.28633 1.15448
vn -2.10261e-16 -0.551347 -0.834276
f 45/67/36 43/66/34 46/69/37

v 3.69482e-13 133.937 470.998
vt -4 1
vn 1.56602e-17 -0.943872 -0.330311
f 43/66/34 47/70/38 46/69/37

f 47/70/38 43/66/34 28/45/12

f 43/62/34 29/46/13 28/45/12

vn 0.551347 -9.46176e-16 -0.834276
f 29/46/13 43/62/34 39/64/39

v 3.69482e-13 133.937 -474.424
vt 0.611291 -3.61129
vn 1.40942e-16 -0.943872 0.330311
f 28/45/12 48/71/40 47/70/38

f 48/71/40 28/45/12 30/47/14

vt 0.397619 -4.26577
vn 1.56602e-16 -0.943872 0.330311
f 32/72/17 48/71/41 30/47/14

v 3.97904e-13 98.6185 -519.612
vt 0.765769 -3.89762
vn 3.00373e-17 -0.551347 0.834276
f 48/71/41 32/72/17 49/73/42

v 3.97904e-13 47.6856 -533.987
vt 0.740815 -4.0628
vn 2.79307e-17 -0.271623 0.962404
f 32/72/17 50/74/43 49/73/42

vt 0.562801 -4.24081
f 50/74/43 32/72/17 33/75/19

vt 1.0628 -3.74082
v 69.7338 69.7338 -519.612
vt 1.26577 -3.39762
vn -0.389861 -0.389861 0.834276
vt 0.897621 -3.76577
f 50/76/43 51/77/44 49/78/42

v 33.7188 33.7188 -533.987
vt 1.24082 -3.5628
vn -0.192066 -0.192066 0.962404
f 51/77/44 50/76/43 52/79/45

vt -2.43719 -7.2408
v 98.6185 -2.27374e-13 -519.612
vt -2.23422 -6.89761
vn -0.551347 2.62827e-17 0.834276
vt -2.60237 -7.26576
f 52/80/45 53/81/46 51/82/44

v 47.6856 -2.55795e-13 -533.987
vt -2.25918 -7.06279
vn -0.271623 4.9577e-16 0.962404
f 53/81/46 52/80/45 54/83/47

v 33.7188 -33.7188 -533.987
vt -1.75918 -6.56279
vn -0.192066 0.192066 0.962404
vt -2.10237 -6.76576
vn -0.551347 3.3792e-17 0.834276
vt -1.93719 -6.74081
f 55/84/48 53/85/49 54/86/47

v 69.7338 -69.7338 -519.612
vt -1.73422 -6.39761
vn -0.389861 0.389861 0.834276
f 53/85/49 55/84/48 56/87/50

v 3.97904e-13 -47.6856 -533.987
vt -1.25918 -6.06279
vn 6.98267e-18 0.271623 0.962404
vt -1.60238 -6.26576
vt -1.43719 -6.24081
f 57/88/51 56/89/50 55/90/48

v 3.97904e-13 -98.6185 -519.612
vt -1.23423 -5.89761
vn 2.2528e-17 0.551347 0.834276
f 56/89/50 57/88/51 58/91/52

vt -0.937195 -5.74081
vt -0.734227 -5.39761
vt -1.10238 -5.76576
vn 2.62827e-17 0.551347 0.834276
f 57/92/51 36/93/23 58/94/53

vt -0.759181 -5.56279
f 36/93/23 57/92/51 35/95/22

v 3.97904e-13 -133.938 -474.424
vt -1.3887 -5.61129
vn 0 0.943872 0.330311
vn 1.50187e-17 0.551347 0.834276
f 36/93/23 59/96/54 58/94/55

f 59/96/54 36/93/23 37/56/26

v 3.97904e-13 -133.938 470.998
vt -5.99999 -0.999994
vn -1.40942e-16 0.943872 -0.330311
f 37/56/26 60/97/56 59/96/54

f 60/97/56 37/56/26 38/57/27

vt -5.78632 -0.345518
vn -1.56602e-16 0.943872 -0.330311
f 40/98/30 60/97/57 38/57/27

v 5.11591e-13 -98.6185 516.185
vt -6.15447 -0.713668
vn -2.40299e-16 0.551347 -0.834276
f 60/97/57 40/98/30 61/99/58

v 5.11591e-13 -47.6856 530.56
vt -6.12952 -0.548486
vn -1.88532e-16 0.271623 -0.962404
vn -2.36544e-16 0.551347 -0.834276
f 40/98/30 62/100/59 61/99/60

vt -5.9515 -0.370472
f 62/100/59 40/98/30 41/101/32

vt -6.4515 -0.870471
v 69.7338 -69.7338 516.185
vt -6.65447 -1.21367
vn -0.389861 0.389861 -0.834276
vt -6.28632 -0.845516
vn -2.32789e-16 0.551347 -0.834276
f 62/102/59 63/103/61 61/104/62

v 33.7188 -33.7188 530.56
vt -6.62952 -1.04848
vn -0.192066 0.192066 -0.962404
f 63/103/61 62/102/59 64/105/63

vt -6.9515 -1.37047
v 98.6185 -5.68434e-14 516.185
vt -7.15447 -1.71366
vn -0.551347 -9.68704e-16 -0.834276
vt -6.78632 -1.34551
f 64/106/63 65/107/64 63/108/61

v 47.6856 -5.68434e-14 530.56
vt -7.12951 -1.54848
vn -0.271623 -4.9577e-16 -0.962404
f 65/107/64 64/106/63 66/109/65

v 33.7188 33.7188 530.56
vt -7.62951 -2.04848
vn -0.192066 -0.192066 -0.962404
vt -7.28632 -1.84551
vn -0.551347 -9.72459e-16 -0.834276
vt -7.4515 -1.87047
f 67/110/66 65/111/67 66/112/65

v 69.7338 69.7338 516.185
vt -7.65447 -2.21366
vn -0.389861 -0.389861 -0.834276
f 65/111/67 67/110/66 68/113/68

vt -4.12952 1.45151
vt -3.78633 1.65448
vt -3.95151 1.62952
f 45/114/36 68/115/68 67/116/66

vt -4.15448 1.28633
vn -2.14016e-16 -0.551347 -0.834276
f 68/115/68 45/114/36 46/117/69

v 94.7081 94.7081 470.998
vt -3.5 1.5
vn -0.667418 -0.667418 -0.330311
f 46/117/37 69/118/70 68/115/68

vn 0 -0.943872 -0.330311
f 69/118/70 46/117/37 47/70/71

v 94.7081 94.7081 -474.424
vt 1.11129 -3.1113
vn -0.667418 -0.667418 0.330311
f 47/70/38 70/119/72 69/118/70

vt 0.611295 -3.6113
f 70/119/72 47/70/38 48/120/40

f 49/78/42 70/119/72 48/120/40

f 70/119/72 49/78/42 51/77/44

v 133.938 -1.98952e-13 -474.424
vt -2.3887 -6.61128
vn -0.943872 -1.26847e-15 0.330311
vt -2.8887 -7.11128
f 51/82/44 71/121/73 70/122/72

vn -0.551347 1.50187e-17 0.834276
f 71/121/73 51/82/44 53/81/74

vn -0.551347 3.00373e-17 0.834276
v 94.7081 -94.7081 -474.424
vt -1.8887 -6.11128
vn -0.667418 0.667418 0.330311
vn -0.943872 -1.28413e-15 0.330311
f 53/85/75 72/123/76 71/121/77

f 72/123/76 53/85/75 56/87/50

f 58/91/55 72/123/76 56/89/50

vn 1.56602e-17 0.943872 0.330311
f 72/123/76 58/91/55 59/96/78

v 94.7081 -94.7081 470.998
vt -6.49999 -1.49999
vn -0.667418 0.667418 -0.330311
f 59/96/78 73/124/79 72/123/76

f 73/124/79 59/96/78 60/97/56

f 61/104/58 73/124/79 60/97/56

f 73/124/79 61/104/58 63/103/61

v 133.938 5.68434e-13 470.998
vt -6.99999 -1.99999
vn -0.943872 -1.73828e-15 -0.330311
f 63/108/61 74/125/80 73/124/79

vn -0.551347 -9.61195e-16 -0.834276
f 74/125/80 63/108/61 65/107/81

vt -7.49999 -2.49999
vn -0.943872 -1.7696e-15 -0.330311
f 65/111/81 69/126/70 74/125/82

f 69/126/70 65/111/81 68/113/68

vn -0.943872 -1.75394e-15 -0.330311
f 69/126/70 71/121/73 74/125/83

f 71/121/73 69/126/70 70/122/72

f 71/121/73 73/124/79 74/125/80

f 73/124/79 71/121/73 72/123/76

g Mesh5 Model

usemtl _3
v 24.2038 -12.625 518.06
vt -0.974172 1.11022e-16
v -24.2037 -18.9362 518.06
vt -4 -0.3945
v 24.2038 -18.9362 518.06
vt -0.974172 -0.3945
f 75/127/1 76/128/1 77/129/1

v -24.2037 -12.625 518.06
vt -4 1.11022e-16
f 76/128/1 75/127/1 78/130/1

usemtl _2
vt 2.02919 -51.201
v -24.2037 -12.625 463.662
vt -3 -45.5494
vt -3 -51.201
f 75/131/7 79/132/7 78/133/7

v 24.2038 -12.625 463.662
vt 2.02919 -45.5494
f 79/132/7 75/131/7 80/134/7

usemtl _3
vt -0.974172 1.22125e-15
v 24.2038 -18.9362 463.662
vt 2.42609 -0.394501
vt 2.42609 -8.82338e-07
f 75/135/8 81/136/8 80/137/8

f 81/136/8 75/135/8 77/129/8

usemtl _2
vt 2.37077 -51.201
vn 0 -1 -1.04496e-15
vt -2.65842 -45.5494
vt -2.65842 -51.201
f 76/138/84 81/139/84 77/140/84

v -24.2037 -18.9362 463.662
vt 2.37077 -45.5494
f 81/139/84 76/138/84 82/141/84

usemtl _3
vt -7.40026 8.8234e-07
vt -7.40026 -0.394499
f 76/128/10 79/142/10 82/143/10

vt -4 -3.33067e-16
f 79/142/10 76/128/10 78/144/10

vt 3.97752 -1.28492e-06
vt 0.951693 -0.3945
vt 3.97752 -0.394501
f 79/145/6 81/146/6 82/147/6

vt 0.951693 -4.99746e-07
f 81/146/6 79/145/6 80/148/6

